<?xml version="1.0" encoding="UTF-8" standalone="no"?>
<!DOCTYPE svg PUBLIC "-//W3C//DTD SVG 1.1//EN"
 "http://www.w3.org/Graphics/SVG/1.1/DTD/svg11.dtd">
<!-- Generated by graphviz version 2.43.0 (0)
 -->
<!-- Title: test Pages: 1 -->
<svg width="1642pt" height="220pt"
 viewBox="0.00 0.00 1641.50 220.00" xmlns="http://www.w3.org/2000/svg" xmlns:xlink="http://www.w3.org/1999/xlink">
<g id="graph0" class="graph" transform="scale(1 1) rotate(0) translate(4 216)">
<title>test</title>
<polygon fill="white" stroke="transparent" points="-4,4 -4,-216 1637.5,-216 1637.5,4 -4,4"/>
<!-- Reader -->
<g id="node1" class="node">
<title>Reader</title>
<polygon fill="none" stroke="black" points="611,-113.5 611,-211.5 1006,-211.5 1006,-113.5 611,-113.5"/>
<text text-anchor="middle" x="808.5" y="-199.5" font-family="Helvetica,sans-Serif" font-size="10.00">Reader</text>
<polyline fill="none" stroke="black" points="611,-192.5 1006,-192.5 "/>
<text text-anchor="start" x="619" y="-180.5" font-family="Helvetica,sans-Serif" font-size="10.00">+ Reader(std::string const&amp;,int const&amp;,double const&amp;,nlohmann::json const&amp;)</text>
<polyline fill="none" stroke="black" points="611,-173.5 1006,-173.5 "/>
<text text-anchor="start" x="619" y="-161.5" font-family="Helvetica,sans-Serif" font-size="10.00">+ virtual void genMatrix()</text>
<text text-anchor="start" x="619" y="-150.5" font-family="Helvetica,sans-Serif" font-size="10.00">+ void printMatrix()</text>
<text text-anchor="start" x="619" y="-139.5" font-family="Helvetica,sans-Serif" font-size="10.00">+ InputData getInputData()</text>
<polyline fill="none" stroke="black" points="611,-132.5 1006,-132.5 "/>
<text text-anchor="start" x="619" y="-120.5" font-family="Helvetica,sans-Serif" font-size="10.00"># InputData input_data</text>
</g>
<!-- FileReader -->
<g id="node2" class="node">
<title>FileReader</title>
<polygon fill="none" stroke="black" points="0,-0.5 0,-76.5 501,-76.5 501,-0.5 0,-0.5"/>
<text text-anchor="middle" x="250.5" y="-64.5" font-family="Helvetica,sans-Serif" font-size="10.00">FileReader</text>
<polyline fill="none" stroke="black" points="0,-57.5 501,-57.5 "/>
<text text-anchor="start" x="8" y="-45.5" font-family="Helvetica,sans-Serif" font-size="10.00">+ FileReader(std::string const&amp;,int const&amp;,double const&amp;,nlohmann::json const&amp;,std::string const&amp;)</text>
<polyline fill="none" stroke="black" points="0,-38.5 501,-38.5 "/>
<text text-anchor="start" x="8" y="-26.5" font-family="Helvetica,sans-Serif" font-size="10.00">+ void genMatrix()</text>
<polyline fill="none" stroke="black" points="0,-19.5 501,-19.5 "/>
<text text-anchor="start" x="8" y="-7.5" font-family="Helvetica,sans-Serif" font-size="10.00"># std::string file_path</text>
</g>
<!-- Reader&#45;&gt;FileReader -->
<g id="edge1" class="edge">
<title>Reader&#45;&gt;FileReader</title>
<path fill="none" stroke="midnightblue" d="M601.07,-116.15C541.41,-103.1 477.07,-89.04 420,-76.56"/>
<polygon fill="none" stroke="midnightblue" points="600.47,-119.6 610.98,-118.32 601.96,-112.76 600.47,-119.6"/>
</g>
<!-- FunctionReader -->
<g id="node3" class="node">
<title>FunctionReader</title>
<polygon fill="none" stroke="black" points="519.5,-0.5 519.5,-76.5 1097.5,-76.5 1097.5,-0.5 519.5,-0.5"/>
<text text-anchor="middle" x="808.5" y="-64.5" font-family="Helvetica,sans-Serif" font-size="10.00">FunctionReader</text>
<polyline fill="none" stroke="black" points="519.5,-57.5 1097.5,-57.5 "/>
<text text-anchor="start" x="527.5" y="-45.5" font-family="Helvetica,sans-Serif" font-size="10.00">+ FunctionReader(std::string const&amp;,int const&amp;,double const&amp;,nlohmann::json const&amp;,std::string const&amp;,int const&amp;)</text>
<polyline fill="none" stroke="black" points="519.5,-38.5 1097.5,-38.5 "/>
<text text-anchor="start" x="527.5" y="-26.5" font-family="Helvetica,sans-Serif" font-size="10.00">+ void genMatrix()</text>
<polyline fill="none" stroke="black" points="519.5,-19.5 1097.5,-19.5 "/>
<text text-anchor="start" x="527.5" y="-7.5" font-family="Helvetica,sans-Serif" font-size="10.00"># std::string func</text>
</g>
<!-- Reader&#45;&gt;FunctionReader -->
<g id="edge2" class="edge">
<title>Reader&#45;&gt;FunctionReader</title>
<path fill="none" stroke="midnightblue" d="M808.5,-103.22C808.5,-94.25 808.5,-85.19 808.5,-76.83"/>
<polygon fill="none" stroke="midnightblue" points="805,-103.28 808.5,-113.28 812,-103.28 805,-103.28"/>
</g>
<!-- PictureReader -->
<g id="node4" class="node">
<title>PictureReader</title>
<polygon fill="none" stroke="black" points="1115.5,-0.5 1115.5,-76.5 1633.5,-76.5 1633.5,-0.5 1115.5,-0.5"/>
<text text-anchor="middle" x="1374.5" y="-64.5" font-family="Helvetica,sans-Serif" font-size="10.00">PictureReader</text>
<polyline fill="none" stroke="black" points="1115.5,-57.5 1633.5,-57.5 "/>
<text text-anchor="start" x="1123.5" y="-45.5" font-family="Helvetica,sans-Serif" font-size="10.00">+ PictureReader(std::string const&amp;,int const&amp;,double const&amp;,nlohmann::json const&amp;,std::string const&amp;)</text>
<polyline fill="none" stroke="black" points="1115.5,-38.5 1633.5,-38.5 "/>
<text text-anchor="start" x="1123.5" y="-26.5" font-family="Helvetica,sans-Serif" font-size="10.00">+ void genMatrix()</text>
<polyline fill="none" stroke="black" points="1115.5,-19.5 1633.5,-19.5 "/>
<text text-anchor="start" x="1123.5" y="-7.5" font-family="Helvetica,sans-Serif" font-size="10.00"># std::string path</text>
</g>
<!-- Reader&#45;&gt;PictureReader -->
<g id="edge3" class="edge">
<title>Reader&#45;&gt;PictureReader</title>
<path fill="none" stroke="midnightblue" d="M1015.88,-116.8C1077.31,-103.56 1143.87,-89.21 1202.78,-76.51"/>
<polygon fill="none" stroke="midnightblue" points="1015.1,-113.39 1006.06,-118.92 1016.57,-120.23 1015.1,-113.39"/>
</g>
</g>
</svg>
