<?xml version="1.0" encoding="UTF-8" standalone="no"?>
<!DOCTYPE svg PUBLIC "-//W3C//DTD SVG 1.1//EN"
 "http://www.w3.org/Graphics/SVG/1.1/DTD/svg11.dtd">
<!-- Generated by graphviz version 2.43.0 (0)
 -->
<!-- Title: test Pages: 1 -->
<svg width="726pt" height="388pt"
 viewBox="0.00 0.00 725.50 388.00" xmlns="http://www.w3.org/2000/svg" xmlns:xlink="http://www.w3.org/1999/xlink">
<g id="graph0" class="graph" transform="scale(1 1) rotate(0) translate(4 384)">
<title>test</title>
<polygon fill="white" stroke="transparent" points="-4,4 -4,-384 721.5,-384 721.5,4 -4,4"/>
<!-- Solver -->
<g id="node1" class="node">
<title>Solver</title>
<polygon fill="none" stroke="black" points="400,-237.5 400,-379.5 550,-379.5 550,-237.5 400,-237.5"/>
<text text-anchor="middle" x="475" y="-367.5" font-family="Helvetica,sans-Serif" font-size="10.00">Solver</text>
<polyline fill="none" stroke="black" points="400,-360.5 550,-360.5 "/>
<text text-anchor="start" x="408" y="-348.5" font-family="Helvetica,sans-Serif" font-size="10.00">+ Solver(InputData)</text>
<polyline fill="none" stroke="black" points="400,-341.5 550,-341.5 "/>
<text text-anchor="start" x="408" y="-329.5" font-family="Helvetica,sans-Serif" font-size="10.00">+ virtual void solve()</text>
<text text-anchor="start" x="408" y="-318.5" font-family="Helvetica,sans-Serif" font-size="10.00">+ OutputData getOutput()</text>
<polyline fill="none" stroke="black" points="400,-311.5 550,-311.5 "/>
<text text-anchor="start" x="408" y="-299.5" font-family="Helvetica,sans-Serif" font-size="10.00"># int n</text>
<text text-anchor="start" x="408" y="-288.5" font-family="Helvetica,sans-Serif" font-size="10.00"># int num_iters</text>
<text text-anchor="start" x="408" y="-277.5" font-family="Helvetica,sans-Serif" font-size="10.00"># double tol</text>
<text text-anchor="start" x="408" y="-266.5" font-family="Helvetica,sans-Serif" font-size="10.00"># Eigen::MatrixXcd A</text>
<text text-anchor="start" x="408" y="-255.5" font-family="Helvetica,sans-Serif" font-size="10.00"># OutputData output</text>
<text text-anchor="start" x="408" y="-244.5" font-family="Helvetica,sans-Serif" font-size="10.00"># std::string method_name</text>
</g>
<!-- PowerBasedSolver -->
<g id="node2" class="node">
<title>PowerBasedSolver</title>
<polygon fill="none" stroke="black" points="167,-113.5 167,-200.5 523,-200.5 523,-113.5 167,-113.5"/>
<text text-anchor="middle" x="345" y="-188.5" font-family="Helvetica,sans-Serif" font-size="10.00">PowerBasedSolver</text>
<polyline fill="none" stroke="black" points="167,-181.5 523,-181.5 "/>
<text text-anchor="start" x="175" y="-169.5" font-family="Helvetica,sans-Serif" font-size="10.00">+ PowerBasedSolver(InputData)</text>
<polyline fill="none" stroke="black" points="167,-162.5 523,-162.5 "/>
<text text-anchor="start" x="175" y="-150.5" font-family="Helvetica,sans-Serif" font-size="10.00">+ void solve()</text>
<text text-anchor="start" x="175" y="-139.5" font-family="Helvetica,sans-Serif" font-size="10.00"># virtual Eigen::VectorXcd eigenvec_approx(Eigen::VectorXcd const&amp;)</text>
<polyline fill="none" stroke="black" points="167,-132.5 523,-132.5 "/>
<text text-anchor="start" x="175" y="-120.5" font-family="Helvetica,sans-Serif" font-size="10.00"># Eigen::MatrixXcd shifted_matrix</text>
</g>
<!-- Solver&#45;&gt;PowerBasedSolver -->
<g id="edge1" class="edge">
<title>Solver&#45;&gt;PowerBasedSolver</title>
<path fill="none" stroke="midnightblue" d="M407.22,-229.55C398.61,-219.65 390.06,-209.82 382.18,-200.76"/>
<polygon fill="none" stroke="midnightblue" points="404.6,-231.88 413.81,-237.13 409.89,-227.28 404.6,-231.88"/>
</g>
<!-- QRSolver -->
<g id="node5" class="node">
<title>QRSolver</title>
<polygon fill="none" stroke="black" points="541,-128.5 541,-185.5 669,-185.5 669,-128.5 541,-128.5"/>
<text text-anchor="middle" x="605" y="-173.5" font-family="Helvetica,sans-Serif" font-size="10.00">QRSolver</text>
<polyline fill="none" stroke="black" points="541,-166.5 669,-166.5 "/>
<text text-anchor="start" x="549" y="-154.5" font-family="Helvetica,sans-Serif" font-size="10.00">+ QRSolver(InputData)</text>
<polyline fill="none" stroke="black" points="541,-147.5 669,-147.5 "/>
<text text-anchor="start" x="549" y="-135.5" font-family="Helvetica,sans-Serif" font-size="10.00">+ void solve()</text>
</g>
<!-- Solver&#45;&gt;QRSolver -->
<g id="edge4" class="edge">
<title>Solver&#45;&gt;QRSolver</title>
<path fill="none" stroke="midnightblue" d="M542.92,-229.39C556.63,-213.63 570.16,-198.07 581.07,-185.52"/>
<polygon fill="none" stroke="midnightblue" points="540.11,-227.28 536.19,-237.13 545.4,-231.88 540.11,-227.28"/>
</g>
<!-- PowerSolver -->
<g id="node3" class="node">
<title>PowerSolver</title>
<polygon fill="none" stroke="black" points="0,-10 0,-67 322,-67 322,-10 0,-10"/>
<text text-anchor="middle" x="161" y="-55" font-family="Helvetica,sans-Serif" font-size="10.00">PowerSolver</text>
<polyline fill="none" stroke="black" points="0,-48 322,-48 "/>
<text text-anchor="start" x="8" y="-36" font-family="Helvetica,sans-Serif" font-size="10.00">+ PowerSolver(InputData)</text>
<polyline fill="none" stroke="black" points="0,-29 322,-29 "/>
<text text-anchor="start" x="8" y="-17" font-family="Helvetica,sans-Serif" font-size="10.00">+ Eigen::VectorXcd eigenvec_approx(Eigen::VectorXcd const&amp;)</text>
</g>
<!-- PowerBasedSolver&#45;&gt;PowerSolver -->
<g id="edge2" class="edge">
<title>PowerBasedSolver&#45;&gt;PowerSolver</title>
<path fill="none" stroke="midnightblue" d="M269.11,-107.95C247.11,-94.02 223.84,-79.29 204.55,-67.07"/>
<polygon fill="none" stroke="midnightblue" points="267.47,-111.05 277.79,-113.45 271.21,-105.14 267.47,-111.05"/>
</g>
<!-- InverseSolver -->
<g id="node4" class="node">
<title>InverseSolver</title>
<polygon fill="none" stroke="black" points="340.5,-0.5 340.5,-76.5 717.5,-76.5 717.5,-0.5 340.5,-0.5"/>
<text text-anchor="middle" x="529" y="-64.5" font-family="Helvetica,sans-Serif" font-size="10.00">InverseSolver</text>
<polyline fill="none" stroke="black" points="340.5,-57.5 717.5,-57.5 "/>
<text text-anchor="start" x="348.5" y="-45.5" font-family="Helvetica,sans-Serif" font-size="10.00">+ InverseSolver(InputData)</text>
<polyline fill="none" stroke="black" points="340.5,-38.5 717.5,-38.5 "/>
<text text-anchor="start" x="348.5" y="-26.5" font-family="Helvetica,sans-Serif" font-size="10.00">+ Eigen::VectorXcd eigenvec_approx(Eigen::VectorXcd const&amp;)</text>
<polyline fill="none" stroke="black" points="340.5,-19.5 717.5,-19.5 "/>
<text text-anchor="start" x="348.5" y="-7.5" font-family="Helvetica,sans-Serif" font-size="10.00"># Eigen::CompleteOrthogonalDecomposition&lt;Eigen::MatrixXcd&gt; decomp</text>
</g>
<!-- PowerBasedSolver&#45;&gt;InverseSolver -->
<g id="edge3" class="edge">
<title>PowerBasedSolver&#45;&gt;InverseSolver</title>
<path fill="none" stroke="midnightblue" d="M420.8,-108.01C437.38,-97.51 454.69,-86.55 470.47,-76.56"/>
<polygon fill="none" stroke="midnightblue" points="418.79,-105.14 412.21,-113.45 422.53,-111.05 418.79,-105.14"/>
</g>
</g>
</svg>
